<svg version="1.1" id="Layer_1" xmlns="http://www.w3.org/2000/svg" xmlns:xlink="http://www.w3.org/1999/xlink" x="0px" y="0px"
	 width="100%" viewBox="0 0 60 66" enable-background="new 0 0 60 66" xml:space="preserve">
<path fill="#FDFBF9" opacity="1.000000" stroke="none" 
	d="
M29.000000,1.000000 
	C39.639717,1.000000 50.279430,1.000000 60.959572,1.000000 
	C60.959572,22.917402 60.959572,44.834892 60.959572,66.876190 
	C41.000488,66.876190 21.000368,66.876190 1.000000,66.876190 
	C1.000000,61.580620 1.000000,56.260761 1.326745,50.575920 
	C4.785907,52.151882 7.918324,54.092823 11.833302,56.518665 
	C11.833302,47.047356 12.232504,38.882946 11.700174,30.779734 
	C11.312023,24.871233 13.475715,21.803659 18.401730,18.498781 
	C25.498238,13.737712 30.993467,13.496665 37.832947,18.819944 
	C44.726105,24.185003 46.434517,23.538033 53.931625,17.053427 
	C48.253784,13.646678 42.674866,10.418812 37.227688,6.982138 
	C34.366108,5.176739 31.735117,3.005848 29.000000,1.000000 
M29.193510,40.500256 
	C29.193510,48.183956 29.193510,55.867653 29.193510,63.852402 
	C38.987495,60.084366 39.041882,60.005981 39.084599,50.825829 
	C39.114723,44.352482 39.148865,37.879154 39.181618,31.405821 
	C39.216862,24.439573 36.966351,21.894081 29.193670,20.560987 
	C29.193670,26.925129 29.193670,33.212872 29.193510,40.500256 
M25.136171,41.500053 
	C25.136171,34.642719 25.136171,27.785381 25.136171,20.675081 
	C16.425013,23.393379 15.906449,24.046593 15.904059,31.450590 
	C15.901807,38.431126 15.902994,45.411659 15.903650,52.392197 
	C15.904326,59.583488 17.237984,61.173237 25.136318,62.910904 
	C25.136318,56.039654 25.136318,49.269794 25.136171,41.500053 
M52.114307,51.161823 
	C52.359272,47.400448 52.742561,43.641949 52.820805,39.877106 
	C52.990997,31.688025 51.742432,30.256712 43.419735,28.541901 
	C43.419735,37.556946 43.419735,46.560169 43.419735,56.371254 
	C46.494022,54.605473 49.014858,53.157581 52.114307,51.161823 
z"/>
<path fill="#384694" opacity="1.000000" stroke="none" 
	d="
M28.750000,1.000000 
	C31.735117,3.005848 34.366108,5.176739 37.227688,6.982138 
	C42.674866,10.418812 48.253784,13.646678 53.931625,17.053427 
	C46.434517,23.538033 44.726105,24.185003 37.832947,18.819944 
	C30.993467,13.496665 25.498238,13.737712 18.401730,18.498781 
	C13.475715,21.803659 11.312023,24.871233 11.700174,30.779734 
	C12.232504,38.882946 11.833302,47.047356 11.833302,56.518665 
	C7.918324,54.092823 4.785907,52.151882 1.326745,50.105469 
	C1.000000,39.645771 1.000000,29.291544 1.324517,18.358755 
	C3.344066,16.508688 4.955706,15.102896 6.748840,13.989365 
	C13.801552,9.609643 20.911377,5.321893 28.000000,1.000000 
	C28.000000,1.000000 28.500000,1.000000 28.750000,1.000000 
z"/>
<path fill="#F8F9FB" opacity="1.000000" stroke="none" 
	d="
M27.531338,1.000000 
	C20.911377,5.321893 13.801552,9.609643 6.748840,13.989365 
	C4.955706,15.102896 3.344066,16.508688 1.324517,17.890099 
	C1.000000,12.390303 1.000000,6.780604 1.000000,1.000000 
	C9.686983,1.000000 18.374830,1.000000 27.531338,1.000000 
z"/>
<path fill="#FB9927" opacity="1.000000" stroke="none" 
	d="
M29.193590,40.000435 
	C29.193670,33.212872 29.193670,26.925129 29.193670,20.560987 
	C36.966351,21.894081 39.216862,24.439573 39.181618,31.405821 
	C39.148865,37.879154 39.114723,44.352482 39.084599,50.825829 
	C39.041882,60.005981 38.987495,60.084366 29.193510,63.852402 
	C29.193510,55.867653 29.193510,48.183956 29.193590,40.000435 
z"/>
<path fill="#FB9926" opacity="1.000000" stroke="none" 
	d="
M25.136246,41.999992 
	C25.136318,49.269794 25.136318,56.039654 25.136318,62.910904 
	C17.237984,61.173237 15.904326,59.583488 15.903650,52.392197 
	C15.902994,45.411659 15.901807,38.431126 15.904059,31.450590 
	C15.906449,24.046593 16.425013,23.393379 25.136171,20.675081 
	C25.136171,27.785381 25.136171,34.642719 25.136246,41.999992 
z"/>
<path fill="#FB9C2C" opacity="1.000000" stroke="none" 
	d="
M51.824997,51.435757 
	C49.014858,53.157581 46.494022,54.605473 43.419735,56.371254 
	C43.419735,46.560169 43.419735,37.556946 43.419735,28.541901 
	C51.742432,30.256712 52.990997,31.688025 52.820805,39.877106 
	C52.742561,43.641949 52.359272,47.400448 51.824997,51.435757 
z"/>
</svg>